<svg id="Layer_1" data-name="Layer 1" xmlns="http://www.w3.org/2000/svg" viewBox="0 0 126 32"><defs><style>.cls-1{fill:#7f2a25;}.cls-2{fill:#231f20;}</style></defs><title>Untitled-1</title><path class="cls-1" d="M27.07,19.55c0,1.62,0,3.24,0,4.86a.79.79,0,0,1-.48.78L15.17,30.73a.84.84,0,0,1-.74,0L2.89,25.43a.7.7,0,0,1-.42-1,.71.71,0,0,1,1-.27l11,5.07a.61.61,0,0,0,.57,0q5.15-2.52,10.31-5a.43.43,0,0,0,.3-.46q0-4.51,0-9c0-.55.24-.85.66-.87a.67.67,0,0,1,.73.73Z"/><path class="cls-1" d="M26.19,6.26l-11-5a1,1,0,0,0-.93,0Q8.57,4,2.92,6.7a.85.85,0,0,0-.53.85q0,5.13,0,10.26a1.62,1.62,0,0,0,0,.22.7.7,0,0,0,.75.62c.41,0,.64-.34.64-.84v-9a.62.62,0,0,1,0-.35l.31.12L14.49,13a1,1,0,0,0,.86,0L26.22,7.63a.72.72,0,0,0,.49-.71A.75.75,0,0,0,26.19,6.26Zm-7,3.29-4,2a.44.44,0,0,1-.43,0L5,7.43,4.8,7.35,7.37,6.11C9.69,5,12,3.9,14.31,2.78a.83.83,0,0,1,.75,0q4.51,2.05,9,4.07l.26.14Z"/><path class="cls-1" d="M29.65,10.09a1.81,1.81,0,1,0-3.51.71.32.32,0,0,1-.07.38q-2.79,3.21-5.57,6.45a.41.41,0,0,1-.42.15,1.68,1.68,0,0,0-1.47.4.32.32,0,0,1-.38.06L11.91,15.9a.33.33,0,0,1-.25-.3,1.81,1.81,0,0,0-3.59.33c0,.17.07.34-.14.49Q5.47,18.09,3,19.8a.27.27,0,0,1-.33,0,1.61,1.61,0,0,0-.85-.24,1.82,1.82,0,1,0,0,3.63,1.8,1.8,0,0,0,1.82-1.82.46.46,0,0,1,.2-.47c1.63-1.11,3.25-2.23,4.88-3.36a.32.32,0,0,1,.36,0,1.74,1.74,0,0,0,2-.25.34.34,0,0,1,.39-.06l6.29,2.33a.34.34,0,0,1,.25.3,1.8,1.8,0,0,0,3.08,1,1.68,1.68,0,0,0,.4-1.85.42.42,0,0,1,.1-.48c1.84-2.12,3.67-4.23,5.5-6.36a.42.42,0,0,1,.44-.16A1.8,1.8,0,0,0,29.65,10.09ZM1.83,22a.6.6,0,0,1-.62-.6.61.61,0,1,1,.62.6Zm8-5.47a.61.61,0,1,1,.63-.6A.65.65,0,0,1,9.86,16.52Zm9.92,3.63a.61.61,0,0,1-.61-.57.61.61,0,0,1,1.22,0A.61.61,0,0,1,19.78,20.15Zm8-9.36a.65.65,0,0,1-.59-.61.63.63,0,0,1,.62-.6.62.62,0,0,1,.59.62A.61.61,0,0,1,27.82,10.79Z"/><path class="cls-2" d="M84.2,11,83,12.57c-.76,1-1.51,2-2.27,2.94a.33.33,0,0,0,0,.49c1.14,1.6,2.26,3.2,3.39,4.79l.19.28a16.51,16.51,0,0,0-1.87,0A1.34,1.34,0,0,1,81,20.36c-.72-1.11-1.52-2.17-2.28-3.25A.78.78,0,0,0,78,16.9c-.11.05-.06.15-.06.23q0,1.83,0,3.66c0,.22-.05.3-.29.29-.63,0-1.27,0-1.9,0-.2,0-.28,0-.28-.27q0-4.81,0-9.65c0-.18,0-.26.23-.25h2c.19,0,.24.06.24.25,0,1.15,0,2.3,0,3.45,0,.23,0,.31.29.31a.63.63,0,0,0,.6-.3c.86-1.17,1.73-2.33,2.6-3.5a.49.49,0,0,1,.43-.21h2.11A.42.42,0,0,1,84.2,11Z"/><path class="cls-2" d="M97.94,16c0-1.6,0-3.19,0-4.79,0-.21,0-.26.25-.26h6.62c.19,0,.27,0,.27.25q0,.75,0,1.5c0,.21-.08.25-.27.25h-4.13c-.25,0-.31.07-.3.31,0,.49,0,1,0,1.49,0,.2.05.26.26.26h3.46c.21,0,.28,0,.27.27,0,.48,0,1,0,1.43,0,.23-.05.3-.28.3h-3.4c-.23,0-.32,0-.31.29,0,.53,0,1.06,0,1.58,0,.21,0,.28.27.28,1.36,0,2.71,0,4.07,0,.31,0,.37.1.36.38,0,.46,0,.92,0,1.37,0,.18,0,.26-.23.26H98.16c-.22,0-.22-.09-.22-.26Z"/><path class="cls-2" d="M111.51,21.19a24,24,0,0,1-3.06-.2c-.19,0-.27-.07-.26-.28,0-.5,0-1,0-1.49,0-.16,0-.19.19-.17a29.85,29.85,0,0,0,3.54.14c1.06,0,1.34-.35,1.23-1.41a.55.55,0,0,0-.49-.56c-.64-.12-1.29-.17-1.93-.26a6,6,0,0,1-1.34-.28A2.11,2.11,0,0,1,108,14.83a6.63,6.63,0,0,1,0-1.78,2.4,2.4,0,0,1,2.29-2.17,17,17,0,0,1,4.62.18c.13,0,.24,0,.24.22,0,.5,0,1,0,1.52,0,.14,0,.19-.18.17a18.43,18.43,0,0,0-3.32-.17h-.12c-1.18.09-1.16.35-1.11,1.37a.45.45,0,0,0,.45.45l2.64.35a4.8,4.8,0,0,1,.91.21,1.56,1.56,0,0,1,1,1.07,5.46,5.46,0,0,1,0,3.25,2.26,2.26,0,0,1-2.07,1.62A15.73,15.73,0,0,1,111.51,21.19Z"/><path class="cls-2" d="M90.66,18.48l.66-2.3q.74-2.52,1.45-5c0-.11,0-.24.2-.24H95.3c-.43,1.43-.86,2.83-1.29,4.23-.58,1.9-1.17,3.8-1.74,5.7,0,.19-.13.24-.32.24H89.2c-.18,0-.24-.06-.3-.23Q87.43,16,86,11.23c-.1-.31-.1-.32.24-.32.64,0,1.27,0,1.91,0,.22,0,.29.07.35.27.68,2.36,1.37,4.71,2,7.06l.09.24Z"/><path class="cls-2" d="M67.88,16c0,.59,0,1.2.06,1.81.12,1,.43,1.29,1.42,1.35a12.85,12.85,0,0,0,2.77-.1c.16,0,.22,0,.22.19,0,.49,0,1,0,1.49,0,.12,0,.2-.16.22a12.16,12.16,0,0,1-4.5,0,2.53,2.53,0,0,1-2.13-2.29,18.65,18.65,0,0,1,0-5.38,2.7,2.7,0,0,1,2.38-2.4A12.45,12.45,0,0,1,72,11c.23,0,.33.11.31.37a11.1,11.1,0,0,0,0,1.29c0,.22-.05.29-.27.25a13.16,13.16,0,0,0-2.51-.11,4.66,4.66,0,0,0-.64.08A1.16,1.16,0,0,0,68,14,19,19,0,0,0,67.88,16Z"/><path class="cls-2" d="M120.73,17c0-1.27,0-2.54,0-3.8,0-.21,0-.26-.25-.26-.79,0-1.57,0-2.35,0-.18,0-.24,0-.24-.23,0-.55,0-1.1,0-1.64,0-.16,0-.2.2-.2h7.73c.14,0,.18,0,.18.18,0,.56,0,1.11,0,1.67,0,.17,0,.23-.22.22-.78,0-1.56,0-2.34,0-.22,0-.28,0-.28.27,0,2.51,0,5,0,7.52,0,.25-.06.33-.32.32-.62,0-1.23,0-1.85,0-.25,0-.29-.08-.29-.31C120.73,19.53,120.73,18.28,120.73,17Z"/><path class="cls-2" d="M44.65,16c0-1.6,0-3.2,0-4.79,0-.21,0-.29.26-.28.64,0,1.27,0,1.91,0,.23,0,.28.07.28.29,0,2.51,0,5,0,7.52,0,.25.07.3.31.29h3.54c.19,0,.24.05.24.24,0,.54,0,1.08,0,1.61,0,.19-.06.23-.23.23H44.88c-.19,0-.24-.06-.24-.24C44.65,19.22,44.65,17.6,44.65,16Z"/><path class="cls-2" d="M41.41,17.94a1.94,1.94,0,0,0-1.64-2l-.19-.09a1.94,1.94,0,0,0,1.7-1.78,3.84,3.84,0,0,0-.11-1.65,2.29,2.29,0,0,0-2.34-1.5l-5.27,0c-.22,0-.22.09-.22.26v9.65c0,.21,0,.26.25.26h4.89a4.87,4.87,0,0,0,.93-.08,2.17,2.17,0,0,0,1.88-1.57A4.09,4.09,0,0,0,41.41,17.94ZM36,12.9h1.13a6.44,6.44,0,0,1,1.21.06.6.6,0,0,1,.51.58,2.73,2.73,0,0,1,0,.7.65.65,0,0,1-.63.65,18.57,18.57,0,0,1-2.24,0c-.13,0-.15-.06-.14-.16,0-.58,0-1.15,0-1.73C35.78,12.93,35.83,12.9,36,12.9Zm3,5.36c0,.54-.25.78-.79.8-.36,0-.72,0-1.08,0H36c-.15,0-.2,0-.2-.19,0-.58,0-1.17,0-1.75,0-.16,0-.2.2-.2.69,0,1.39,0,2.08,0s.83.25.86.86C38.92,18,38.92,18.11,38.91,18.26Z"/><path class="cls-2" d="M62.33,13.56l-.06-.4a2.24,2.24,0,0,0-2-2.16,12.16,12.16,0,0,0-4.42,0,2.22,2.22,0,0,0-2,1.67,5.58,5.58,0,0,0-.2,1.35,29.72,29.72,0,0,0,.08,4.81,2.25,2.25,0,0,0,2,2.21,11.48,11.48,0,0,0,4.41,0,2.29,2.29,0,0,0,2.08-2.24,20.82,20.82,0,0,0,.11-2.71C62.39,15.19,62.41,14.38,62.33,13.56Zm-2.52,4.75c-.08.55-.28.79-.79.85a8.7,8.7,0,0,1-2,0,.76.76,0,0,1-.68-.63,2.6,2.6,0,0,1-.11-.63c-.06-1.25,0-2.51,0-3.76a2.25,2.25,0,0,1,.07-.52.82.82,0,0,1,.85-.77,8.45,8.45,0,0,1,2,0,.72.72,0,0,1,.61.51,2.12,2.12,0,0,1,.14.75c0,.63,0,1.26,0,1.89A11.9,11.9,0,0,1,59.81,18.31Z"/></svg>