<svg id="Layer_1" data-name="Layer 1" xmlns="http://www.w3.org/2000/svg" viewBox="0 0 170 40"><defs><style>.cls-1{fill:#fff;}</style></defs><title>Untitled-1</title><path class="cls-1" d="M36.53,24.79c0,2.18,0,4.37,0,6.55a1,1,0,0,1-.65,1.06L20.47,39.88a1.1,1.1,0,0,1-1,0L3.9,32.72a1,1,0,0,1-.57-1.31A1,1,0,0,1,4.73,31l14.84,6.83a.78.78,0,0,0,.77,0L34.26,31.1a.59.59,0,0,0,.4-.62c0-4.06,0-8.12,0-12.18,0-.74.32-1.15.89-1.17a.91.91,0,0,1,1,1Z"/><path class="cls-1" d="M35.33,6.86,20.43.15a1.37,1.37,0,0,0-1.26,0Q11.56,3.82,3.94,7.45A1.14,1.14,0,0,0,3.23,8.6q0,6.92,0,13.84a2.8,2.8,0,0,0,0,.29.93.93,0,0,0,1,.84c.55,0,.86-.45.86-1.13,0-4,0-8.09,0-12.13a1,1,0,0,1,0-.47l.43.16,14,5.93a1.26,1.26,0,0,0,1.15,0L35.37,8.71a1,1,0,0,0,.66-1A1,1,0,0,0,35.33,6.86Zm-9.46,4.43L20.43,14a.63.63,0,0,1-.58.06L6.69,8.43l-.22-.1L10,6.66l9.36-4.49a1.07,1.07,0,0,1,1,0l12.2,5.5.36.18Z"/><path class="cls-1" d="M40,12a2.34,2.34,0,0,0-1.58-2.15A2.43,2.43,0,0,0,35.27,13a.44.44,0,0,1-.09.51c-2.52,2.9-5,5.8-7.53,8.7a.5.5,0,0,1-.56.21,2.24,2.24,0,0,0-2,.54.44.44,0,0,1-.51.09l-8.54-3.17a.43.43,0,0,1-.33-.4,2.44,2.44,0,0,0-4.84.44c0,.23.1.47-.19.66-2.22,1.51-4.42,3-6.62,4.56a.36.36,0,0,1-.45,0,2.22,2.22,0,0,0-1.15-.32,2.45,2.45,0,1,0,0,4.9,2.43,2.43,0,0,0,2.46-2.46.63.63,0,0,1,.26-.63c2.2-1.5,4.39-3,6.59-4.53a.39.39,0,0,1,.48-.05,2.38,2.38,0,0,0,2.72-.35.44.44,0,0,1,.52-.08Q19.7,23.22,24,24.78a.45.45,0,0,1,.33.41A2.34,2.34,0,0,0,26,27.13,2.44,2.44,0,0,0,29,24a.56.56,0,0,1,.14-.64q3.72-4.29,7.41-8.58a.54.54,0,0,1,.59-.22A2.43,2.43,0,0,0,40,12ZM2.47,28.09a.82.82,0,0,1-.83-.81.8.8,0,0,1,.83-.8.81.81,0,0,1,0,1.61ZM13.3,20.7a.87.87,0,0,1-.8-.81.86.86,0,0,1,.83-.82.85.85,0,0,1,.82.82A.87.87,0,0,1,13.3,20.7Zm13.38,4.9a.84.84,0,0,1-.82-.78.83.83,0,0,1,1.65,0A.83.83,0,0,1,26.68,25.6ZM37.53,13a.81.81,0,1,1,.84-.78A.81.81,0,0,1,37.53,13Z"/><path class="cls-1" d="M113.6,13.2c-.56.73-1.11,1.46-1.67,2.18-1,1.32-2,2.65-3.07,4-.21.26-.17.41,0,.66q2.3,3.22,4.57,6.47c.08.1.15.21.26.37-.89,0-1.72-.06-2.53,0a1.8,1.8,0,0,1-1.9-1c-1-1.51-2-2.93-3.07-4.39a1.07,1.07,0,0,0-1-.29c-.15.07-.08.21-.08.31,0,1.65,0,3.29,0,4.94,0,.3-.07.4-.38.39-.86,0-1.72,0-2.57,0-.28,0-.38,0-.38-.35q0-6.53,0-13c0-.24,0-.34.32-.34.89,0,1.79,0,2.68,0,.27,0,.33.08.33.34,0,1.55,0,3.1,0,4.65,0,.31,0,.43.39.43a.89.89,0,0,0,.81-.42c1.15-1.58,2.34-3.13,3.51-4.71a.64.64,0,0,1,.58-.29c1,0,1.9,0,2.85,0A.51.51,0,0,1,113.6,13.2Z"/><path class="cls-1" d="M132.14,20c0-2.16,0-4.31,0-6.47,0-.28.06-.35.34-.35h8.93c.26,0,.37,0,.36.35q0,1,0,2c0,.29-.1.34-.36.34h-5.58c-.33,0-.41.09-.4.41,0,.67,0,1.34,0,2,0,.28.07.36.34.35,1.56,0,3.11,0,4.67,0,.29,0,.38.06.37.37,0,.64,0,1.29,0,1.93,0,.31-.07.41-.39.4-1.53,0-3.05,0-4.58,0-.31,0-.43.05-.42.39q0,1.07,0,2.13c0,.29.06.38.37.38,1.83,0,3.66,0,5.49,0,.42,0,.5.12.48.5,0,.62,0,1.24,0,1.86,0,.24,0,.34-.32.34-3,0-6,0-9,0-.3,0-.3-.12-.3-.34C132.15,24.32,132.14,22.14,132.14,20Z"/><path class="cls-1" d="M150.44,27a33.68,33.68,0,0,1-4.13-.26c-.24,0-.36-.11-.35-.39,0-.67,0-1.34,0-2,0-.21,0-.25.26-.23a40,40,0,0,0,4.77.2c1.44,0,1.81-.48,1.67-1.91a.75.75,0,0,0-.66-.75c-.87-.17-1.74-.23-2.62-.36a7.91,7.91,0,0,1-1.8-.38,2.82,2.82,0,0,1-1.94-2.49,9.56,9.56,0,0,1,0-2.39,3.26,3.26,0,0,1,3.1-2.94,23.3,23.3,0,0,1,6.24.24c.17,0,.32.05.31.3,0,.68,0,1.37,0,2,0,.19,0,.26-.24.23a26,26,0,0,0-4.49-.23h-.16c-1.59.12-1.57.47-1.5,1.85a.63.63,0,0,0,.61.61l3.56.47a6.53,6.53,0,0,1,1.22.28,2.11,2.11,0,0,1,1.39,1.45,7.35,7.35,0,0,1,0,4.38,3,3,0,0,1-2.8,2.18A20.08,20.08,0,0,1,150.44,27Z"/><path class="cls-1" d="M122.31,23.35l.9-3.11q1-3.39,2-6.79c0-.14,0-.32.27-.31h3.14l-1.74,5.7c-.78,2.56-1.57,5.12-2.35,7.69-.07.26-.18.32-.43.32-1.23,0-2.47,0-3.71,0-.24,0-.33-.07-.4-.31-1.32-4.32-2.66-8.65-4-13-.13-.43-.12-.43.33-.43.86,0,1.72,0,2.57,0,.3,0,.4.1.48.37q1.36,4.76,2.77,9.53c0,.11.07.21.11.32Z"/><path class="cls-1" d="M91.58,20c0,.79,0,1.62.08,2.44.17,1.31.59,1.74,1.92,1.82a17.33,17.33,0,0,0,3.74-.13c.22,0,.3,0,.29.25,0,.67,0,1.34,0,2,0,.17,0,.28-.21.3a16.36,16.36,0,0,1-6.08,0,3.39,3.39,0,0,1-2.86-3.09,25.23,25.23,0,0,1,0-7.26,3.64,3.64,0,0,1,3.22-3.24,16.56,16.56,0,0,1,5.44.1c.31.05.45.15.43.5a16.62,16.62,0,0,0,0,1.73c0,.3-.06.39-.36.34a17.5,17.5,0,0,0-3.39-.14,5,5,0,0,0-.86.1,1.55,1.55,0,0,0-1.24,1.52A24.37,24.37,0,0,0,91.58,20Z"/><path class="cls-1" d="M162.88,21.39c0-1.71,0-3.42,0-5.13,0-.28-.07-.35-.34-.34h-3.16c-.26,0-.34-.06-.33-.32,0-.74,0-1.47,0-2.21,0-.21.06-.27.27-.27h10.42c.19,0,.25,0,.25.24,0,.75,0,1.5,0,2.24,0,.24-.05.31-.3.31-1,0-2.11,0-3.16,0-.29,0-.37.06-.37.36,0,3.38,0,6.76,0,10.14,0,.34-.08.45-.43.43q-1.24,0-2.49,0c-.34,0-.4-.1-.39-.41C162.89,24.76,162.88,23.07,162.88,21.39Z"/><path class="cls-1" d="M60.24,20q0-3.24,0-6.48c0-.27,0-.38.35-.37.86,0,1.72,0,2.57,0,.32,0,.39.09.39.4,0,3.38,0,6.76,0,10.14,0,.33.09.4.41.4,1.6,0,3.19,0,4.78,0,.26,0,.33.07.32.33,0,.72,0,1.44,0,2.17,0,.25-.07.3-.31.3q-4.08,0-8.17,0c-.26,0-.32-.07-.32-.32Q60.25,23.24,60.24,20Z"/><path class="cls-1" d="M55.87,22.62a2.63,2.63,0,0,0-2.21-2.68,2.17,2.17,0,0,1-.26-.11,2.61,2.61,0,0,0,2.29-2.41,5.25,5.25,0,0,0-.14-2.23,3.11,3.11,0,0,0-3.16-2c-2.37,0-4.74,0-7.11,0-.3,0-.3.13-.3.35q0,6.51,0,13c0,.27.06.34.34.34h6.6a5.81,5.81,0,0,0,1.25-.11,2.93,2.93,0,0,0,2.54-2.11A5.62,5.62,0,0,0,55.87,22.62Zm-7.36-6.8H50a8.42,8.42,0,0,1,1.63.08.81.81,0,0,1,.69.79,3.7,3.7,0,0,1,0,.94.89.89,0,0,1-.84.88,28,28,0,0,1-3,.07c-.17,0-.19-.09-.19-.22,0-.78,0-1.56,0-2.33C48.28,15.86,48.35,15.82,48.51,15.82Zm4,7.23a1,1,0,0,1-1.07,1.08c-.49,0-1,0-1.46,0v0c-.48,0-.95,0-1.42,0-.2,0-.28,0-.27-.26q0-1.18,0-2.37c0-.21.06-.26.26-.26.94,0,1.87,0,2.81,0s1.12.35,1.16,1.17A5.81,5.81,0,0,1,52.5,23.05Z"/><path class="cls-1" d="M84.09,16.71c0-.18,0-.37-.07-.55a3,3,0,0,0-2.64-2.91,16.75,16.75,0,0,0-5.95-.06,3,3,0,0,0-2.69,2.26,7.57,7.57,0,0,0-.28,1.82,41.48,41.48,0,0,0,.11,6.5,3,3,0,0,0,2.7,3,15.93,15.93,0,0,0,6,0,3.09,3.09,0,0,0,2.8-3,28.51,28.51,0,0,0,.15-3.66C84.17,18.91,84.21,17.81,84.09,16.71Zm-3.39,6.4c-.11.74-.39,1.08-1.07,1.15a11.58,11.58,0,0,1-2.76,0,1,1,0,0,1-.91-.85,3.44,3.44,0,0,1-.15-.85c-.07-1.69-.07-3.39,0-5.08a2.75,2.75,0,0,1,.1-.7c.16-.7.43-1,1.14-1a11.79,11.79,0,0,1,2.72,0,1,1,0,0,1,.82.69,3.16,3.16,0,0,1,.19,1c0,.86,0,1.71,0,2.57A16.91,16.91,0,0,1,80.7,23.11Z"/></svg>